 <svg version="1.0" xmlns="http://www.w3.org/2000/svg"  width="300.000000pt" height="205.000000pt" viewBox="0 0 300.000000 205.000000"  preserveAspectRatio="xMidYMid meet">  <g transform="translate(0.000000,205.000000) scale(0.100000,-0.100000)" fill="currentColor" stroke="none"> <path d="M578 1770 c-19 -15 -28 -31 -28 -51 0 -26 -3 -29 -31 -29 -36 0 -64 -13 -101 -48 -36 -34 -36 -68 2 -120 l29 -41 -34 -21 c-47 -29 -95 -86 -95 -113 0 -25 39 -66 84 -89 l29 -15 -62 -33 c-83 -44 -91 -61 -53 -109 l29 -36 -32 -38 c-48 -56 -77 -138 -82 -237 -10 -164 65 -314 210 -423 112 -85 377 -126 602 -93 68 10 166 33 225 52 95 32 118 36 250 41 115 4 175 1 292 -16 82 -12 174 -21 206 -21 69 0 149 22 185 51 l27 20 31 -36 c18 -20 45 -43 60 -51 26 -13 30 -13 48 5 10 10 26 41 35 69 16 46 21 52 74 75 115 52 106 51 150 2 22 -25 46 -45 55 -45 18 0 37 49 37 94 0 17 10 49 21 71 17 31 20 50 16 91 -6 62 -45 142 -86 177 -26 22 -29 30 -24 60 3 20 3 47 -1 60 -13 53 -123 64 -225 23 -33 -13 -63 -20 -66 -15 -3 4 -34 24 -68 43 -73 41 -161 59 -232 48 -43 -7 -55 -5 -85 15 -44 28 -107 42 -189 43 -48 0 -77 6 -116 26 -35 16 -72 26 -110 27 l-57 2 5 54 c8 71 -8 203 -33 285 -15 49 -32 78 -63 110 -53 54 -97 63 -200 40 -105 -24 -121 -22 -175 23 -81 69 -126 86 -217 87 -44 0 -91 -2 -105 -3 -14 -2 -43 0 -65 4 -33 6 -45 3 -67 -15z m337 -25 c17 -7 57 -33 90 -59 33 -26 71 -50 84 -53 14 -3 53 1 87 10 84 23 151 22 191 -3 58 -35 100 -149 110 -296 7 -114 0 -160 -28 -167 -18 -5 -20 -2 -14 16 30 101 30 199 -2 279 -43 111 -124 177 -198 164 -48 -9 -99 -63 -120 -126 -28 -84 -18 -210 24 -294 18 -37 45 -76 61 -88 l29 -21 -70 -49 c-38 -27 -69 -53 -69 -58 0 -7 -86 15 -99 26 -1 1 9 15 23 31 71 76 94 268 48 405 -54 159 -160 246 -264 218 -52 -15 -113 -85 -134 -157 -25 -81 -23 -219 4 -300 22 -69 73 -156 105 -178 20 -14 20 -14 1 -20 -45 -15 -64 -25 -64 -35 0 -14 23 -13 38 2 21 21 192 23 253 3 30 -10 60 -22 67 -28 9 -7 26 3 63 38 56 53 179 114 279 140 75 20 185 16 239 -8 l34 -14 -51 -17 c-59 -20 -159 -103 -143 -119 7 -7 19 0 36 21 14 17 56 46 93 64 62 31 73 33 162 32 76 -1 106 -6 145 -24 l50 -22 -36 -13 c-42 -15 -169 -93 -169 -104 0 -20 15 -17 53 12 23 18 71 45 107 62 59 27 75 30 165 29 87 0 108 -3 158 -26 31 -15 57 -28 57 -30 0 -2 -30 -4 -66 -4 -80 -2 -145 -26 -179 -66 -21 -25 -25 -39 -23 -77 2 -25 7 -45 13 -43 5 1 8 20 6 42 -2 34 2 45 28 69 41 38 114 55 206 48 62 -4 84 -1 141 20 50 18 82 24 116 20 69 -6 80 -19 72 -83 -6 -49 -4 -53 20 -70 59 -38 109 -169 86 -224 -15 -37 -42 -54 -132 -84 -40 -13 -104 -38 -142 -55 -101 -46 -144 -55 -197 -41 -57 16 -101 63 -123 134 -10 31 -22 56 -28 56 -6 0 -8 -9 -5 -20 5 -18 0 -20 -37 -20 -23 0 -96 -7 -161 -16 -191 -25 -292 -4 -337 72 -21 36 -43 46 -33 15 5 -18 0 -19 -82 -15 -219 10 -355 57 -384 132 -12 30 -33 29 -25 -2 5 -22 2 -24 -37 -29 -23 -2 -80 -10 -127 -17 -110 -17 -221 3 -289 50 -49 35 -66 32 -31 -5 38 -40 123 -67 233 -73 68 -3 97 -8 97 -17 0 -7 17 -32 38 -55 48 -55 74 -51 128 20 l38 50 17 -44 c20 -55 56 -106 73 -106 8 0 32 20 54 44 36 39 42 42 47 26 10 -32 62 -81 79 -74 8 3 24 21 35 40 20 33 21 34 89 34 60 0 71 -3 92 -24 46 -50 188 -71 316 -47 27 5 88 13 135 17 l86 7 7 -34 c4 -20 23 -49 50 -75 42 -39 43 -43 27 -58 -54 -49 -191 -60 -381 -31 -241 37 -408 29 -566 -26 -136 -47 -247 -62 -414 -56 -226 9 -335 44 -438 140 -83 79 -131 177 -146 297 -19 154 70 322 204 385 l41 20 -7 140 c-5 111 -3 154 10 208 37 159 113 247 240 278 38 9 131 1 171 -16z m-270 3 c-11 -6 -32 -22 -47 -36 -24 -22 -28 -23 -28 -8 0 37 19 56 58 56 32 -1 35 -2 17 -12z m-95 -82 c0 -2 -11 -23 -24 -47 -13 -24 -29 -63 -36 -87 l-11 -43 -34 43 c-19 24 -35 48 -35 53 0 21 33 57 64 71 29 12 76 19 76 10z m348 -20 c66 -35 129 -133 152 -237 28 -124 -4 -292 -66 -350 -20 -19 -34 -22 -95 -22 -67 1 -73 3 -105 34 -44 42 -89 132 -104 206 -7 32 -10 94 -8 140 9 175 118 285 226 229z m434 -66 c20 -17 49 -56 65 -88 25 -51 28 -67 28 -162 0 -150 -6 -158 -158 -207 -27 -8 -98 71 -120 135 -28 78 -32 158 -12 227 34 119 119 159 197 95z m-862 -220 c0 -114 -1 -116 -73 -70 -49 31 -57 52 -36 91 10 20 85 79 101 79 4 0 8 -45 8 -100z m10 -170 c0 -22 -4 -40 -9 -40 -5 0 -32 -15 -60 -34 l-51 -34 -21 29 c-17 24 -18 33 -9 44 12 15 126 75 142 75 4 0 8 -18 8 -40z m572 -507 c-52 -66 -69 -78 -88 -62 -9 7 -27 29 -39 49 l-23 35 82 16 c44 9 85 13 90 8 5 -4 -5 -25 -22 -46z m116 -13 c22 -11 50 -20 62 -20 28 0 25 -11 -14 -49 l-34 -33 -31 53 c-28 49 -36 69 -28 69 2 0 22 -9 45 -20z m222 -46 c0 -12 -25 -54 -32 -54 -9 0 -57 50 -58 60 0 3 20 4 45 2 25 -2 45 -6 45 -8z m1306 -128 c-4 -25 -10 -47 -14 -49 -4 -2 -22 14 -41 35 -28 32 -30 38 -15 38 11 1 30 7 44 15 14 7 27 12 29 10 2 -2 0 -24 -3 -49z m-322 -119 c-9 -26 -22 -47 -30 -47 -14 0 -94 67 -94 79 0 3 22 4 49 3 27 -2 58 1 68 6 10 6 19 9 20 8 2 -1 -4 -24 -13 -49z"/> <path d="M2488 960 c-26 -8 -128 -76 -128 -86 0 -4 102 4 157 12 32 5 63 27 63 44 0 15 -31 40 -48 39 -9 0 -29 -4 -44 -9z m60 -32 c-5 -13 -82 -31 -108 -25 -22 6 49 36 83 37 19 0 27 -4 25 -12z"/> <path d="M2152 904 c-53 -37 -51 -84 5 -84 43 0 163 30 163 40 0 5 -14 20 -31 34 -36 30 -101 35 -137 10z m114 -18 c21 -16 21 -17 -51 -35 -55 -15 -75 -14 -75 3 0 39 87 60 126 32z"/> <path d="M855 1406 c-66 -66 -50 -210 29 -261 60 -39 126 27 126 127 0 127 -87 202 -155 134z m84 -22 c33 -24 49 -69 43 -123 -7 -61 -27 -91 -62 -91 -47 0 -70 40 -70 119 0 54 4 72 20 89 25 26 38 27 69 6z"/> <path d="M1215 1410 c-28 -31 -32 -125 -7 -170 15 -26 27 -36 50 -38 26 -3 33 2 46 27 21 40 20 118 -2 161 -21 43 -59 51 -87 20z m59 -32 c19 -27 21 -119 4 -136 -19 -19 -34 -14 -46 13 -22 48 -10 145 18 145 5 0 16 -10 24 -22z"/> </g> </svg> 
